<?xml version="1.0" encoding="UTF-8"?>
<!DOCTYPE svg PUBLIC "-//W3C//DTD SVG 1.1//EN" "http://www.w3.org/Graphics/SVG/1.1/DTD/svg11.dtd">
<!-- Creator: CorelDRAW 2019 (64-Bit) -->
<svg xmlns="http://www.w3.org/2000/svg" xml:space="preserve" width="210mm" height="330mm" version="1.1" style="shape-rendering:geometricPrecision; text-rendering:geometricPrecision; image-rendering:optimizeQuality; fill-rule:evenodd; clip-rule:evenodd"
viewBox="0 0 21000 33000"
 xmlns:xlink="http://www.w3.org/1999/xlink"
 xmlns:xodm="http://www.corel.com/coreldraw/odm/2003"
 data-name="Layer 1">
 <defs>
  <style type="text/css">
   <![CDATA[
    .str0 {stroke:#332C2B;stroke-width:20;stroke-miterlimit:22.9256}
    .str1 {stroke:#332C2B;stroke-width:7.62;stroke-miterlimit:22.9256}
    .fil0 {fill:none}
    .fil2 {fill:#FEFEFE}
    .fil6 {fill:#FFF000}
    .fil5 {fill:#E62129}
    .fil4 {fill:#00A2E9}
    .fil3 {fill:#009B4C}
    .fil10 {fill:#FEFEFE;fill-rule:nonzero}
    .fil1 {fill:#6777EF;fill-rule:nonzero}
    .fil8 {fill:url(#id2)}
    .fil7 {fill:url(#id3)}
    .fil9 {fill:url(#id4);fill-rule:nonzero}
   ]]>
  </style>
     <mask id="id0">
  <linearGradient id="id1" gradientUnits="userSpaceOnUse" x1="10176.78" y1="14001.38" x2="10154.2" y2="19622.26">
   <stop offset="0" style="stop-opacity:1; stop-color:white"/>
   <stop offset="1" style="stop-opacity:0; stop-color:white"/>
  </linearGradient>
      <rect style="fill:url(#id1)" x="3995.04" y="12737.29" width="12889.91" height="8329.74"/>
     </mask>
  <linearGradient id="id2" gradientUnits="userSpaceOnUse" x1="3307.32" y1="23095.03" x2="3305.15" y2="23110.59">
   <stop offset="0" style="stop-opacity:1; stop-color:white"/>
   <stop offset="1" style="stop-opacity:1; stop-color:#332C2B"/>
  </linearGradient>
  <linearGradient id="id3" gradientUnits="userSpaceOnUse" x1="10323.5" y1="16315.19" x2="10323.5" y2="20355.91">
   <stop offset="0" style="stop-opacity:1; stop-color:white"/>
   <stop offset="1" style="stop-opacity:1; stop-color:white"/>
  </linearGradient>
  <linearGradient id="id4" gradientUnits="userSpaceOnUse" x1="10180.99" y1="21543.85" x2="10036.95" y2="27257.37">
   <stop offset="0" style="stop-opacity:1; stop-color:#E62129"/>
   <stop offset="1" style="stop-opacity:1; stop-color:#FFF000"/>
  </linearGradient>
 </defs>
 <g id="Layer_x0020_1">
  <metadata id="CorelCorpID_0Corel-Layer"/>
  <path class="fil0 str0" d="M-79294.49 12754.71c-206.19,-365.41 -323.32,-788.03 -323.32,-1234.2 0,-1341.8 1059.38,-2470.67 2414.48,-2470.67 1355.1,0 2414.48,1128.87 2414.48,2470.67 0,349.48 -71.87,684.52 -202.11,988.93 1005.53,453.43 1822.09,1249.01 2318.14,2233.2 347.93,-200.99 751.09,-316.47 1184.5,-316.47 1355.1,0 2414.48,1128.87 2414.48,2470.67 0,1341.8 -1059.38,2470.67 -2414.48,2470.67 -406.86,0 -787.05,-101.76 -1119.92,-280.49 -519.97,1113.83 -1442.87,2000.74 -2585.54,2452.41 256.62,394.45 404.93,866.7 404.93,1368.75 0,1341.8 -1059.38,2470.67 -2414.48,2470.67 -1355.1,0 -2414.48,-1128.87 -2414.48,-2470.67 0,-591.61 205.94,-1141.82 552.37,-1572.14 -940.09,-490.72 -1691.37,-1287.25 -2140.32,-2249.02 -332.87,178.73 -713.07,280.49 -1119.92,280.49 -1355.1,0 -2414.48,-1128.87 -2414.48,-2470.67 0,-1341.8 1059.38,-2470.67 2414.48,-2470.67 433.41,0 836.57,115.48 1184.5,316.47 414.64,-822.67 1054.7,-1516.75 1846.69,-1987.93z"/>
  <g id="_2669882466480">
   <circle class="fil1" cx="10451.21" cy="18126.52" r="10500"/>
   <g>
    <path class="fil2" d="M15044.82 23658.2l1662.46 -2325.19c188.21,-263.24 514.42,-391.14 830.82,-391.14l415.63 0c134.1,0 247.31,88.55 279.59,218.7l689.51 2778.63c22.06,88.91 3.76,174.69 -52.69,246.86 -56.44,72.17 -135.29,110.59 -226.91,110.59l-250.25 0c-206.54,0 -406,-50.07 -582.19,-159.29 -176.87,-109.65 -307.6,-266.93 -364.06,-468.43 -0.83,-2.99 -1.5,-5.56 -2.25,-8.57l-10.84 -43.85 -701.68 0c-27.29,0 -53.59,-3.52 -78.52,-10.29l-208.97 298.19c-0.78,1.12 -1.45,2.06 -2.25,3.15 -188.66,261.68 -513.06,389.09 -828.69,389.09l-465.07 0c-51.23,0 -99.06,-12.39 -140.69,-35.46 -41.64,23.27 -89.22,35.46 -140.61,35.46l-335.14 0c-185.75,0 -363.66,-39.49 -527.76,-127.18 -162.07,-86.61 -293.52,-213.82 -372.59,-380.63 -5.22,-11.02 -9.12,-20.68 -12.98,-32.25l-172.32 -516.68 -96.36 409.96c-0.51,2.21 -0.97,4.07 -1.54,6.25 -52.92,204.56 -182.05,363.59 -358.64,477.07 -178.04,114.42 -380.25,163.46 -590.56,163.46l-244.36 0c-49.79,0 -95.78,-11.34 -136.48,-33.3 -40.2,21.03 -85.97,32.74 -134.44,32.74l-1701.63 0c-262.61,0 -511.27,-74.35 -707.98,-252.59 -200.39,-181.58 -293.25,-422.52 -243.32,-690.31 0.83,-4.43 1.61,-8.17 2.63,-12.54l115.31 -495.16c-56.27,51.57 -118.26,98.45 -185.22,140.71 -256.97,162.16 -545.76,232.47 -848.41,232.47l-760.24 0 -101.37 431.7c-0.51,2.22 -0.97,4.09 -1.54,6.29 -52.92,204.59 -182.26,363.59 -359.05,476.8 -178.08,114.01 -379.98,163.19 -590.16,163.19l-244.36 0c-90.95,0 -169.23,-37.83 -225.73,-109.1 -25.86,-32.62 -43.87,-68.09 -53.8,-105.45 -23.48,18.19 -48.04,35.44 -73.62,51.73 -177.24,112.88 -378.32,162.82 -587.36,162.82l-244.35 0c-90.91,0 -169.15,-37.79 -225.66,-108.99 -24.51,-30.9 -41.96,-64.33 -52.19,-99.52 -20.73,15.67 -42.26,30.63 -64.57,44.88 -177.81,113.65 -379.22,163.07 -589.24,163.07l-1202.57 0c-264.25,0 -513.04,-75.11 -711.53,-253.46 -201.62,-181.18 -294.19,-422.95 -244.2,-691.12 0.83,-4.43 1.61,-8.19 2.64,-12.57l64.22 -275.62c30.75,-132.02 145.01,-222.72 280.56,-222.72l465.08 0c116.65,0 227.18,26.42 324.38,83.58l-635.57 -594.45c-140.29,-131.21 -206.77,-308.38 -173.32,-498.54 0.31,-1.74 0.58,-3.23 0.92,-4.97l45.03 -232.11c1.17,-6 2.32,-11.09 3.83,-17 52.8,-204.95 183.08,-363.51 360.07,-476.62 178.29,-113.96 378.97,-164.76 589.96,-164.76l1206.27 0c263.7,0 511.99,75.54 710.02,253.45 75.86,68.16 136.47,144.73 179.93,228.02 67.12,-126.68 168.56,-230.4 294.09,-310.61 177.66,-113.49 379.05,-164.72 589.18,-164.72l244.35 0c90.91,0 169.15,37.79 225.66,108.99 39.39,49.64 60.56,105.86 62.8,165.36 33.6,-27.08 69.19,-52.45 106.59,-76.15 217.42,-137.82 462.51,-198.2 718.95,-198.2l600.93 0c285.22,0 579.37,43.01 834.53,176.99 220.54,115.81 402.81,279.16 511.35,506.36 8.63,18.09 16.69,36.28 24.17,54.56l21.48 -92.23c0.64,-2.72 1.2,-5.03 1.92,-7.73 16.85,-64.29 41.52,-124.03 72.92,-179.25 -576.21,-231.47 -975.76,-805.96 -975.76,-1462.23 0,-2.31 0,-4.61 0.01,-6.91 -84.05,92.04 -170.01,182.29 -258.84,269.81 -244.9,241.32 -511.03,451.45 -840.55,563.12 -472.96,160.29 -973.14,77.53 -1445.56,-37.14 -326.57,-79.27 -648.33,-176.63 -969.53,-275.06 -428.66,-131.34 -856.12,-266.51 -1284.68,-398.17 -2.76,-0.56 -5.53,-1.13 -8.29,-1.69 -11.1,-2.04 -22.12,-4.52 -33.04,-7.38 -9.93,-2.59 -19.78,-5.48 -29.52,-8.72 -203.35,-59.43 -337.78,-258.13 -315.83,-470.07 5.78,-55.79 11.9,-111.53 18.26,-167.26 9.06,-544.17 42.98,-1115.25 178.96,-1643.01 115.61,-448.7 310.06,-856.04 662.19,-1167.25 494.54,-437.06 1198.49,-580.12 1830.41,-689.98 277.31,-451.43 764.14,-736.7 1305.54,-736.7 180.58,0 357.92,31.59 525.35,93.36 198.86,-322.48 460.16,-603.33 768.71,-823.28 -68.39,-180.16 -103.59,-371.83 -103.59,-566.02 0,-854.81 677.77,-1570.93 1540.96,-1570.93 863.2,0 1540.97,716.12 1540.97,1570.93 0,135.27 -17.08,269.61 -50.76,399.91 422.98,235.11 777.96,577.58 1031.92,989.38 167.42,-61.76 344.76,-93.35 525.35,-93.35 541.39,0 1028.23,285.27 1305.53,736.7 631.92,109.86 1335.88,252.92 1830.41,689.98 352.14,311.21 546.58,718.55 662.19,1167.25 135.93,527.61 169.89,1098.49 178.95,1642.5 6.37,55.89 12.49,111.81 18.29,167.78 21.96,211.97 -112.54,410.69 -315.93,470.08 -9.69,3.23 -19.49,6.11 -29.37,8.69 -10.98,2.87 -22.04,5.36 -33.2,7.41 -2.73,0.56 -5.46,1.11 -8.19,1.67 -428.57,131.66 -856.05,266.85 -1284.71,398.19 -321.19,98.41 -642.94,195.77 -969.49,275.04 -472.41,114.67 -972.57,197.43 -1445.51,37.15 -329.54,-111.67 -595.68,-321.82 -840.6,-563.14 -225.43,-222.12 -432.44,-461.88 -636.78,-703.61 40.91,142.5 61.9,290.77 61.9,440.72 0,378.41 -132.9,729.57 -355.83,1003.53l1062.1 0c91.2,0 169.67,38.05 226.17,109.64 24.17,30.64 41.42,63.77 51.6,98.59 6.53,-4.33 13.13,-8.61 19.79,-12.82 217.43,-137.81 462.52,-198.19 718.96,-198.19l600.93 0c285.59,0 579.18,44.57 834.51,178.64 220.67,115.88 402.9,279.87 511.38,506.95 104.84,219.47 123.97,455.56 70.47,691.67 -0.41,1.81 -0.77,3.33 -1.21,5.14 -57.98,235.78 -194.09,430.6 -384.19,580.4 -104.72,82.51 -218.98,146.82 -339.95,195.66l207.15 560.65z"/>
    <path class="fil3" d="M9015.68 18934.42c-1623.93,1912.64 -1444.76,1770.87 -4964.33,690.57 3425.28,697.38 3423.15,865.66 4671.07,-928.62l-0.45 -0.43c91.76,86.47 189.89,166.25 293.71,238.48zm-867.98 -1033.74l1.12 2.39 -1.12 -2.39zm18.18 38.15l0.14 0.27 -0.14 -0.28 -0.13 -0.28 -0.13 -0.27 -0.14 -0.28 -0.14 -0.28 -0.13 -0.27 0 0 0.13 0.27 0 0.01 0.14 0.27 0 0.01 0.14 0.27 0 0 0.13 0.27 0 0.01 0.13 0.27 0 0.01zm-1.71 -3.53l-0.04 -0.09 -0.14 -0.28 -0.13 -0.27 0 0 0.13 0.27 0 0.01 0.14 0.27 0 0.01 0.04 0.08zm-1.11 -2.31l-0.14 -0.28 -0.14 -0.28 0 0.01 0.14 0.27 0 0.01 0.14 0.27zm55.41 108.13l0.11 0.2 -0.11 -0.21 0 0.01zm-1.45 -2.68l-0.11 -0.21 0.11 0.21zm-0.34 -0.62l-0.11 -0.21 0 0.01 0.11 0.2zm-0.33 -0.62l-0.11 -0.21 0 0.01 0.11 0.2zm-1.45 -2.68l-0.11 -0.21 0 0 0.11 0.21zm-0.78 -1.45l-0.11 -0.21 0 0.01 0.11 0.2zm-0.33 -0.62l-0.11 -0.2 0 0 0.11 0.2zm-0.44 -0.82l-0.11 -0.21 0 0 0.11 0.21z"/>
    <path class="fil4" d="M8722.42 18696.37c-1252.54,1800.91 -1245.31,1624.8 -4708.74,920.93l37.34 0.25c3335.23,347.28 3470.41,512.49 4430.62,-1181.31 74.27,92.12 154.71,179.07 240.78,260.13zm-4709.12 920.86l-0.68 -0.14 0.72 -3.45 -0.04 3.59zm4151.43 -1680.78l0.1 0.2 -0.1 -0.2zm0.19 0.39l0.09 0.2 -0.09 -0.2zm0.19 0.39l0.09 0.2 -0.09 -0.2zm0.19 0.39l0.09 0.2 -0.09 -0.19 0 -0.01zm0.37 0.78l0.1 0.2 -0.1 -0.19 0 -0.01zm0.67 1.36l0.09 0.2 -0.09 -0.19 0 -0.01zm1.8 3.7l-0.86 -1.75 -0.09 -0.19 -0.1 -0.2 -0.66 -1.36 1.71 3.5zm-2.18 -4.47l-0.19 -0.39 0.19 0.39zm-0.38 -0.78l-0.19 -0.39 0.19 0.39z"/>
    <path class="fil5" d="M8481.64 18436.24c-960.21,1693.81 -1095.26,1528.6 -4430.53,1181.31 3267.68,20.67 3508.69,166.58 4242.16,-1447.36 57.3,92.68 120.24,181.55 188.37,266.05zm-4468.3 1177.38l-18.28 -1.91c6.64,-64.12 13.57,-126.4 20.64,-187.77 -1.1,62 -1.96,124.95 -2.36,189.68z"/>
    <path class="fil6" d="M8293.27 18170.18c-736.32,1620.22 -975.92,1466.86 -4279.97,1447.12 15.68,-2624.24 602.96,-2986.8 2310.34,-3283.47 -39.36,126.41 -60.59,260.57 -60.59,399.02 0,715.5 564.9,1317.46 1287.49,1317.46 216.95,0 419.66,-54.31 597.16,-149.63 43.35,92.87 92,182.85 145.57,269.5z"/>
    <path class="fil3" d="M11864.26 18934.36c1624.03,1912.69 1444.79,1770.94 4964.31,690.65 -357.55,72.8 -677.35,139.72 -965.48,199.33l-18.99 3.94 -83.87 17.3 -49.25 10.15 -48.92 10.03c-28.12,5.77 -56.23,11.52 -83.73,17.13l-17.11 3.47c-34.67,7.05 -68.97,14.01 -102.63,20.79l-9.08 1.82c-1890.8,380.39 -2195.75,316.33 -3029.39,-840.21 -81.82,-113.47 -168.63,-237.26 -262.62,-372.38 -91.7,86.35 -189.69,165.95 -293.24,237.98z"/>
    <path class="fil4" d="M12157.54 18696.34c1252.57,1800.95 1245.32,1624.83 4708.76,920.96l0.01 0 -7.89 0.06 -29.48 0.21 -0.02 0c-52.1,5.42 -103.4,10.8 -153.96,16.13l-0.05 0.01c-50.53,5.32 -100.3,10.6 -149.32,15.82l-0.09 0.01c-49.01,5.21 -97.27,10.38 -144.79,15.47l-0.11 0.02c-2425.65,260.19 -2938.98,354.81 -3577.09,-564.68l-0.16 -0.23 -0.27 -0.38c-125.04,-180.15 -254.85,-399.2 -404.76,-663.53 -74.34,92.19 -154.78,179.13 -240.78,260.13zm4709.15 920.89l0.67 -0.14 -0.71 -3.41 0.04 3.55z"/>
    <path class="fil5" d="M12398.39 18436.12c960.47,1693.86 1095.4,1528.72 4430.53,1181.45 -598.76,3.79 -1095.61,11.75 -1512.7,12.34l-10.46 0.02c-29.47,0.03 -58.4,0.01 -87.08,-0.04l-19.56 -0.02c-26.15,-0.06 -51.8,-0.17 -77.31,-0.31l-25.33 -0.12c-22.65,-0.14 -44.83,-0.36 -66.98,-0.56 -11,-0.11 -22.18,-0.19 -33.07,-0.31 -19.32,-0.22 -38.21,-0.5 -57.16,-0.78 -12.81,-0.18 -25.78,-0.34 -38.41,-0.56 -17.44,-0.29 -34.48,-0.65 -51.59,-1 -13.61,-0.27 -27.36,-0.53 -40.76,-0.84 -15.07,-0.35 -29.78,-0.78 -44.6,-1.18 -14.99,-0.4 -30.09,-0.78 -44.81,-1.24 -13.13,-0.4 -25.91,-0.88 -38.83,-1.32 -15.76,-0.54 -31.6,-1.07 -47.05,-1.67 -11.45,-0.46 -22.6,-0.97 -33.89,-1.46 -16.49,-0.71 -33.05,-1.41 -49.21,-2.2 -9.94,-0.48 -19.6,-1.04 -29.42,-1.55 -16.99,-0.9 -34,-1.79 -50.61,-2.78 -8.33,-0.49 -16.41,-1.06 -24.64,-1.58 -17.73,-1.12 -35.46,-2.25 -52.77,-3.49 -7.03,-0.5 -13.85,-1.07 -20.81,-1.6 -17.98,-1.36 -35.91,-2.73 -53.43,-4.22 -6.08,-0.52 -11.98,-1.09 -18.01,-1.63 -18.15,-1.61 -36.22,-3.25 -53.88,-5.02 -4.93,-0.5 -9.7,-1.05 -14.6,-1.56 -18.46,-1.91 -36.81,-3.86 -54.75,-5.96 -3.68,-0.44 -7.25,-0.91 -10.91,-1.35 -18.88,-2.27 -37.59,-4.59 -55.91,-7.07 -2.72,-0.37 -5.34,-0.78 -8.06,-1.16 -18.99,-2.61 -37.78,-5.32 -56.18,-8.18l-6.34 -1.04c-18.84,-2.98 -37.45,-6.05 -55.69,-9.3l-4.23 -0.78c-18.85,-3.39 -37.45,-6.9 -55.68,-10.6l-1.64 -0.35c-525.32,-106.78 -796.51,-343.14 -1076.92,-850.34 -1.86,-3.37 -3.74,-6.91 -5.6,-10.3 -8.42,-15.33 -16.85,-30.75 -25.3,-46.58 -73.21,-137.08 -147.7,-292.79 -228.1,-469.65 -57.31,92.67 -120.2,181.49 -188.25,265.89zm4468.26 1177.5l18.28 -1.91c-6.64,-64.08 -13.54,-126.52 -20.61,-187.85l0.25 14.39c0.21,12.22 0.41,24.45 0.6,36.78 0.67,45.18 1.18,91 1.47,137.68l0.01 0.91z"/>
    <path class="fil6" d="M12586.69 18170.14c736.34,1620.26 975.91,1466.91 4280,1447.16 -15.68,-2624.24 -602.97,-2986.8 -2310.34,-3283.47 39.35,126.41 60.59,260.57 60.59,399.02 0,715.5 -564.9,1317.46 -1287.5,1317.46 -216.95,0 -419.66,-54.32 -597.16,-149.63 -43.39,92.93 -92.06,182.88 -145.59,269.46z"/>
    <path class="fil6" d="M10281.98 12737.29c606.81,0 1098.73,505.33 1098.73,1128.69 0,623.37 -491.92,1128.7 -1098.73,1128.7 -606.81,0 -1098.73,-505.33 -1098.73,-1128.7 0,-623.36 491.92,-1128.69 1098.73,-1128.69z"/>
    <path class="fil3" d="M10281.98 18809.64c606.81,0 1098.73,505.33 1098.73,1128.7 0,623.36 -491.92,1128.69 -1098.73,1128.69 -606.81,0 -1098.73,-505.33 -1098.73,-1128.69 0,-623.37 491.92,-1128.7 1098.73,-1128.7z"/>
    <path class="fil5" d="M13329.44 15604.16c606.81,0 1098.73,505.33 1098.73,1128.69 0,623.37 -491.92,1128.7 -1098.73,1128.7 -606.81,0 -1098.72,-505.33 -1098.72,-1128.7 0,-623.36 491.91,-1128.69 1098.72,-1128.69z"/>
    <path class="fil4" d="M7550.54 15604.16c606.81,0 1098.73,505.33 1098.73,1128.69 0,623.37 -491.92,1128.7 -1098.73,1128.7 -606.81,0 -1098.73,-505.33 -1098.73,-1128.7 0,-623.36 491.92,-1128.69 1098.73,-1128.69z"/>
    <path class="fil6" d="M11375.13 14561.39c505.17,225.23 918.32,627.26 1165.31,1130.2 -305.12,243.07 -498.49,622.7 -498.49,1041.26 0,432.65 206.6,823.73 529.67,1065.36 -263.79,580.58 -745.61,1035.58 -1337.4,1253.74 -233.65,-263.44 -570.97,-431.07 -952.24,-431.07 -332.95,0 -632.34,127.86 -858.5,335.68 -489.64,-241.59 -885.23,-652.25 -1115.14,-1158.33 323.08,-241.62 529.7,-632.71 529.7,-1065.38 0,-418.55 -193.37,-798.17 -498.48,-1041.25 207.76,-423.05 533,-774.8 931.75,-1009.92 233.87,303.78 596.31,501.76 1010.67,501.76 466.82,0 867.75,-251.28 1093.15,-622.05z"/>
    <path class="fil7" style="mask:url(#id0)" d="M6325.08 16333.63c-0.49,0.04 -1.01,0.13 -1.41,0.2 -534.68,92.9 -1198.2,216.75 -1616.2,586.16 -283.46,250.51 -433.95,585.88 -526.79,946.2 -127.71,495.68 -157.07,1041.36 -165.23,1552.2 -0.1,6.5 -0.47,12.03 -1.2,18.49 -6.68,58.24 -13.16,116.26 -19.21,174.67 0.07,0.17 0.08,0.14 0.23,0.25 5.53,1.47 9.98,2.84 15.14,4.7 0.65,0.21 1.34,0.39 1.99,0.56 0.42,0.11 0.64,0.19 1.07,0.28 1.97,0.34 3.42,0.61 5.37,1 7.78,1.59 15.57,3.18 23.36,4.76 6.3,1.28 11.62,2.63 17.77,4.52 432.41,132.78 863.68,269.2 1296.16,401.72 312.78,95.84 626.28,190.94 944.28,268.13 379.54,92.12 818.89,176.98 1199.3,48.06 261.56,-88.64 478.15,-268.18 672.12,-459.31 301.59,-297.17 570.08,-629.32 843.88,-951.8 0.42,-0.49 0.86,-1.03 1.22,-1.57 55.32,-84.26 166.92,-110.19 253.73,-58.96 34.73,20.5 70.01,40.1 105.76,58.76 51.86,27.07 85.47,71.48 97.43,128.74 11.96,57.26 -1.05,111.42 -37.74,156.98 -164.33,204.11 -252.83,458.05 -252.83,719.97 0,610.58 479.79,1128.69 1098.73,1128.69 618.94,0 1098.73,-518.11 1098.73,-1128.69 0,-222.74 -63.91,-440.21 -185.41,-626.97 -31.96,-49.13 -39.42,-104.46 -21.61,-160.3 17.81,-55.85 55.94,-96.64 110.45,-118.19 112.36,-44.41 221.13,-97.67 325.18,-159.07 86.83,-51.24 198.45,-25.28 253.76,59.02 0.35,0.53 0.78,1.05 1.19,1.53 273.82,322.5 542.33,654.67 843.94,951.86 193.98,191.13 410.58,370.67 672.14,459.31 380.41,128.92 819.74,44.06 1199.26,-48.06 318,-77.19 631.49,-172.29 944.26,-268.13 432.51,-132.52 863.81,-268.95 1296.24,-401.73 6.17,-1.9 11.52,-3.26 17.85,-4.54 7.72,-1.57 15.44,-3.14 23.16,-4.71 1.94,-0.39 3.59,-0.7 5.17,-0.97 0.46,-0.1 0.92,-0.22 1.37,-0.34 0.63,-0.16 1.21,-0.31 1.83,-0.51 5.38,-1.93 9.94,-3.36 15.06,-4.65 0.13,-0.09 0.33,-0.33 0.37,-0.25 -6.05,-58.46 -12.46,-116.88 -19.15,-175.27 -0.75,-6.46 -1.11,-11.99 -1.21,-18.49 -8.17,-510.68 -37.56,-1056.17 -165.22,-1551.69 -92.84,-360.32 -243.33,-695.69 -526.8,-946.2 -417.99,-369.41 -1081.51,-493.26 -1616.19,-586.16 -0.4,-0.07 -0.92,-0.16 -1.41,-0.2 -92.11,35.3 -195.55,-5.96 -237.99,-95.21 -182.29,-383.34 -559.36,-634.26 -987.5,-634.26 -189.45,0 -373.13,48.66 -537.21,143.44 -46.64,26.95 -96.79,32.84 -148.41,17.43 -51.62,-15.4 -90.33,-47.82 -114.58,-95.92 -244.97,-486.06 -648.3,-879.64 -1145.16,-1103.7 -93.61,-42.21 -136.33,-151.92 -95.94,-246.33 61.3,-143.29 92.56,-297.27 92.56,-453.1 0,-610.58 -479.79,-1128.69 -1098.73,-1128.69 -618.94,0 -1098.73,518.11 -1098.73,1128.69 0,198.26 50.6,392.69 148.05,565.38 50.35,89.23 20.16,202.62 -67.88,255 -391.44,232.88 -707.82,576.31 -912.67,982.76 -24.24,48.11 -62.96,80.52 -114.57,95.92 -51.63,15.41 -101.77,9.52 -148.42,-17.43 -164.08,-94.79 -347.77,-143.45 -537.22,-143.45 -428.15,0 -805.21,250.92 -987.5,634.26 -42.44,89.25 -145.88,130.51 -237.99,95.21z"/>
    <path class="fil8 str1" d="M3302.27 23094c1.7,2.56 3.37,5.14 5.01,7.72l3.26 0 -8.27 -7.72z"/>
    <path class="fil9" d="M3311.63 21223.81c-164.63,0 -309.32,39.06 -434.82,119.41 -123.29,78.68 -203.75,179.66 -236.23,305.76l-45.04 232.11c-15.5,88.15 12.54,168.51 86.38,238.25l1358.35 1270.46 -951.59 0c12.55,-70.3 -8.87,-130.56 -67.18,-183.01 -58.32,-51.89 -132.15,-78.11 -225.17,-78.11l-465.08 0 -64.22 275.63c-30.27,162.36 21.41,304.64 153.55,424.05 133.62,119.4 307.1,179.66 518.97,179.66l1202.59 0c166.11,0 310.79,-39.06 434.09,-117.73 125.49,-80.35 203.75,-181.34 236.22,-307.43l45.04 -217.6c17.71,-89.84 -10.35,-169.63 -84.16,-239.92l-1360.56 -1283.31 1012.11 0c-14.76,70.31 -4.43,132.24 36.91,184.69 41.34,50.21 106.3,76.43 199.33,76.43l465.08 0 64.22 -275.62c30.27,-162.37 -21.39,-304.65 -155.03,-424.05 -132.14,-119.41 -305.62,-179.67 -517.49,-179.67l-1206.27 0zm3223.85 6.14l-244.36 0c-163.88,0 -309.32,39.62 -434.08,119.4 -123.28,78.68 -201.54,180.22 -234.02,304.1l-549.24 2355.13 244.36 0c164.62,0 309.32,-39.62 432.6,-117.73 125.51,-80.34 203.01,-181.9 235.51,-305.76l549.23 -2355.14zm169.05 862.04l70.88 -62.48c123.28,-90.39 242.14,-144.51 359.52,-162.37 116.64,-17.86 231.07,-26.23 343.28,-21.2l60.53 0 688.03 0c326.31,0 402.34,153.99 363.22,326.41 -16.98,63.6 -56.1,104.88 -116.65,121.07 -60.53,16.74 -136.57,22.87 -225.16,21.2l-1130.97 0c-135.84,1.67 -253.21,34.6 -352.13,98.2 -99.66,63.61 -162.42,145.07 -190.46,246.61l-315.97 1349.15 244.36 0c166.83,0 311.53,-39.62 434.81,-117.73 123.29,-79.79 203.03,-180.79 235.5,-306.33l153.55 -653.92 988.5 0c264.28,0 495.36,-62.49 694.68,-188.03 198.58,-125.54 324.07,-289.02 375.75,-489.88 41.34,-182.45 24.38,-349.29 -49.46,-503.28 -73.83,-155.11 -201.53,-278.97 -385.35,-375.5 -183.83,-96.53 -417.1,-143.96 -700.59,-143.96l-600.93 0c-214.07,0 -402.32,50.78 -564.73,153.44 -162.41,103.22 -263.56,235.46 -304.9,397.26l-75.31 311.34zm3886.81 -862.04c-164.63,0 -309.33,39.62 -432.61,119.4 -123.28,78.13 -203.75,179.67 -236.23,303.54l-408.24 1753.09c-30.27,162.37 21.41,304.65 153.55,424.04 131.41,119.41 304.9,178 514.55,178l1701.63 0 2.21 -12.84c30.26,-162.37 -21.4,-302.97 -153.55,-422.37 -131.41,-119.41 -304.89,-179.66 -514.55,-179.66l-886.61 0 123.27 -529.5 705.02 0c164.61,0 309.32,-39.61 432.59,-117.72 125.52,-79.79 203.03,-181.35 235.51,-306.89l45.77 -191.37 -1274.18 0 93 -401.73 1122.85 0c163.9,0 309.32,-39.62 432.61,-117.73 125.5,-79.79 203.02,-181.34 235.49,-306.88l45.79 -191.38 -1937.87 0zm2954.4 -2.79c-214.08,0 -402.34,50.78 -564.75,153.44 -162.41,103.22 -263.54,236.02 -304.88,397.83l-75.31 313.01 70.87 -63.61c123.28,-90.39 242.14,-144.51 359.52,-162.92 116.65,-17.85 231.06,-26.22 343.28,-21.21 19.93,1.68 41.35,1.68 60.54,1.68l688.02 -1.68c326.31,0 402.35,157.91 363.21,328.08 -16.97,64.17 -56.09,105.45 -116.64,121.64 -60.53,16.74 -136.57,22.87 -227.38,21.2l-1128.75 0c-135.83,1.67 -253.21,32.92 -352.13,96.52 -99.66,63.62 -162.41,145.07 -190.46,246.63l-315.97 1350.81 244.36 0c166.83,0 311.53,-39.62 434.81,-117.73 123.3,-80.34 203.02,-181.34 235.5,-306.88l153.55 -653.37 423.75 0 245.09 734.84c49.46,104.33 133.62,188.03 248.05,249.95 117.38,61.94 246.57,93.19 392,93.19l335.15 0 -406.76 -1100.85c211.88,-39.62 391.27,-116.05 538.91,-232.11 146.91,-116.06 242.13,-257.77 282.75,-422.93 41.34,-182.45 24.36,-349.84 -49.46,-503.84 -73.84,-155.11 -201.54,-279.54 -385.37,-376.06 -183.82,-96.52 -417.09,-145.63 -700.58,-145.63l-600.92 0zm3992.37 2.79c-248.78,0 -475.42,101.55 -596.49,270.61l-1793.17 2508.02 465.09 0c248.77,0 473.93,-101.56 595.01,-269.49l1139.82 -1626.45 159.48 600.92 -337.39 0 -438.5 614.87 927.22 0 64.96 262.8c34.7,123.86 115.15,224.86 238.45,301.29 123.29,76.44 267.98,116.06 430.39,116.06l250.25 0 -689.5 -2778.63 -415.62 0z"/>
   </g>
   <path class="fil10" d="M2181.35 17892.54c2.78,-239.71 -116.31,-369.83 -331.07,-372.32 -163.9,-1.9 -270.15,61.23 -425.13,263.67 -120.53,158.42 -190.83,208.66 -286.91,207.54 -90.43,-1.04 -125.7,-45.85 -124.81,-123.53 0.91,-77.68 37.21,-121.65 131.41,-120.56l67.82 0.79 2.68 -230.84 -54.63 -0.64c-211,-2.44 -332.94,113.8 -335.7,351.28 -2.75,237.5 116.36,365.41 323.59,367.81 150.71,1.75 258.87,-63.59 413.84,-266.01 120.54,-158.44 190.81,-206.46 300.08,-205.2 97.97,1.14 131.31,50.36 130.41,128.06 -0.91,77.68 -35.38,126.11 -129.57,125.02l-90.43 -1.05 -2.68 230.83 75.36 0.87c211,2.45 332.96,-116.01 335.74,-355.72zm17.84 -641.48l33.99 -241.78 -1306.01 -183.64 -33.99 241.78 1306.01 183.64zm157.52 -862.35c53.93,-233.59 -34.61,-386.14 -243.89,-434.45 -159.72,-36.87 -277,2.12 -471.63,166.78 -151.59,129.02 -231,163.08 -324.62,141.47 -88.13,-20.34 -113.02,-71.64 -95.55,-147.34 17.47,-75.7 62.33,-110.9 154.12,-89.71l66.1 15.25 51.92 -224.94 -53.23 -12.29c-205.62,-47.46 -349.58,40.06 -402.99,271.47 -53.42,231.43 35.61,381.83 237.56,428.44 146.85,33.9 266.48,-6.83 461.1,-171.48 151.61,-129.03 230.52,-160.94 337,-136.36 95.45,22.04 117.52,77.25 100.03,152.95 -17.47,75.7 -61.5,115.65 -153.28,94.47l-88.12 -20.34 -51.92 224.92 73.42 16.95c205.62,47.46 350.07,-42.21 403.98,-275.79zm198.66 -808.65l72.4 -233.17 -1079.61 -335.19 75.7 -243.79 -179.94 -55.87 -223.78 720.75 179.94 55.87 75.69 -243.79 1079.6 335.19zm259.54 -704.35l274 -606.92 -171.72 -77.52 -173.54 384.39 -369.19 -166.68 137.91 -305.49 -171.71 -77.52 -137.93 305.49 -317.67 -143.42 173.54 -384.39 -171.72 -77.52 -274 606.92 1202.03 542.66zm410.82 -846.34l116.3 -178.54 -836.67 -545.06 2.43 -3.73 933.59 396.29 111.48 -171.11 -739.75 -693.85 2.43 -3.72 836.67 545.07 126 -193.42 -1105.04 -719.9 -190.22 292 706.09 645.42 -2.43 3.72 -875.7 -385.06 -190.22 292 1105.04 719.89zm982.32 -1365.07l158.82 -185.45 -1001.75 -857.84 -158.8 185.45 1001.73 857.84zm384.12 -407.88l158.3 -149.21 -660.36 -700.59 3.22 -3.04 873.58 499.62 182.52 -172.04 -904.61 -959.71 -158.29 149.2 541.47 574.46 -3.23 3.05 -714.3 -411.56 -222.9 210.1 904.6 959.72zm809.29 -718.03l199.44 -140.86 -331.52 -469.37 257.46 -181.84 -108.69 -153.9 -257.46 181.84 -211.95 -300.09 328.17 -231.78 -108.69 -153.89 -527.6 372.63 760.84 1077.26zm1061.68 -657.87c208.37,-118.55 262.57,-288.11 158.22,-471.53l-342.84 -602.63c-104.34,-183.41 -277.8,-223.46 -486.16,-104.92 -208.37,118.54 -262.57,288.11 -158.23,471.52l342.84 602.64c104.35,183.41 277.8,223.46 486.17,104.92zm-93.17 -163.77c-67.52,38.42 -127.66,31.46 -174.24,-50.43l-355.89 -625.56c-46.59,-81.88 -21.85,-137.14 45.68,-175.55 67.53,-38.43 127.68,-31.47 174.26,50.42l355.89 625.56c46.58,81.89 21.84,137.14 -45.7,175.56zm674.61 -169.09l228.28 -86.61 -200.49 -528.46 78.87 -29.92c103.77,-39.37 157.23,-17.34 200.67,97.16l85.54 225.48c38.09,100.41 53.75,116.64 78.23,143.63l232.45 -88.19c-40.21,-37.14 -58.99,-80.39 -81.72,-140.29l-82.2 -216.67c-52.79,-139.16 -124.9,-216.58 -250.41,-203.23l-1.33 -3.53c88.32,-73.8 105.31,-172.95 57.2,-299.78l-28.74 -75.74c-72.18,-190.25 -209.29,-245.04 -445.87,-155.28l-338.28 128.33 467.8 1233.1zm-39.04 -791.23l-133.65 -352.31 103.77 -39.37c80.94,-30.71 130.93,-5.34 164.34,82.74l36.08 95.12c37.43,98.65 -2.43,150.04 -87.52,182.32l-83.02 31.5zm999.62 415.93l207.84 -46.96 -220.05 -974.01 4.34 -0.98 393.26 934.88 199.19 -45 -46.86 -1013.14 4.34 -0.98 220.06 974.01 225.16 -50.87 -290.64 -1286.43 -339.93 76.8 56.47 954.95 -4.33 0.98 -359.57 -886.47 -339.93 76.8 290.65 1286.42zm1236.14 -272.95l225.75 -17.12 24.77 -260.73 276.65 -20.97 -0.29 -3.76 64.08 257.78 243.45 -18.45 -351.99 -1295.95 -329.79 24.99 -152.63 1334.21zm265.76 -458.5l56.97 -658.08 4.43 -0.34 157.71 641.81 -219.11 16.61zm1131.29 415.26c239.7,2.83 369.86,-116.21 372.4,-330.98 1.94,-163.91 -61.17,-270.17 -263.57,-425.19 -158.39,-120.57 -208.62,-190.88 -207.48,-286.96 1.07,-90.43 45.88,-125.7 123.56,-124.78 77.68,0.92 121.65,37.23 120.53,131.44l-0.8 67.81 230.84 2.73 0.64 -54.62c2.5,-211.01 -113.71,-332.97 -351.2,-335.78 -237.49,-2.81 -365.42,116.27 -367.87,323.5 -1.79,150.71 63.52,258.89 265.91,413.9 158.4,120.58 206.41,190.86 205.12,300.13 -1.16,97.97 -50.39,131.3 -128.08,130.38 -77.68,-0.92 -126.11,-35.41 -125,-129.6l1.07 -90.43 -230.83 -2.74 -0.88 75.36c-2.5,211 115.93,332.99 355.64,335.83zm641.87 12.99l241.78 34 183.63 -1306 -241.77 -34 -183.64 1306zm904.29 142.5l237.9 54.91 120.77 -523.2 112.47 25.96c237.9,54.92 380.54,-30.11 428.01,-235.71l29.24 -126.67c47.45,-205.62 -43.49,-344.56 -281.39,-399.47l-350.37 -80.88 -296.63 1285.06zm401.05 -651.87l91.1 -394.69 112.48 25.96c75.69,17.47 110.01,56.33 88.82,148.12l-35.17 152.37c-21.18,91.79 -69.06,111.67 -144.76,94.2l-112.47 -25.96zm559.25 900.44l615.9 253.18 71.64 -174.26 -390.08 -160.35 154 -374.65 310.02 127.44 71.63 -174.26 -310 -127.44 132.51 -322.37 390.08 160.35 71.63 -174.26 -615.89 -253.18 -501.44 1219.8zm866.01 365.96l328.08 177.28c214.81,116.07 374.9,71.94 475.21,-113.7l317.06 -586.78c100.31,-185.65 49.5,-343.75 -165.31,-459.82l-328.07 -177.27 -626.97 1160.29zm304.37 -49.69l447.83 -828.77 109.36 59.09c68.35,36.93 93.25,88.92 48.47,171.8l-326.03 603.36c-44.78,82.88 -101.92,90.55 -170.26,53.62l-109.37 -59.1zm880.04 773.8c196.79,136.9 367.7,108.91 488.21,-64.31l574.56 -825.89 -193.15 -134.38 -583.18 838.27c-53.8,77.33 -111.43,78.55 -175.2,34.18 -63.77,-44.37 -82.67,-98.82 -28.87,-176.15l583.17 -838.27 -200.43 -139.44 -574.57 825.89c-120.51,173.22 -87.33,343.2 109.46,480.1zm547.86 387.17l490.61 420.14 122.55 -143.11 -305.16 -261.33 735.29 -858.62 -185.45 -158.81 -857.84 1001.73zm655.8 612.33l167.46 177.67 959.72 -904.61 -167.47 -177.67 -959.71 904.61zm609.68 683.38l140.84 199.43 461.69 -326.08 48.65 68.9c64.04,90.65 56.05,147.93 -43.99,218.58l-196.98 139.13c-87.71,61.95 -99.52,81.16 -119.55,111.6l143.43 203.07c25.93,-48.21 63.12,-77.19 115.44,-114.15l189.3 -133.69c121.57,-85.87 178.54,-175.03 134.28,-293.22l3.07 -2.18c93.52,67.11 193.77,58.81 304.57,-19.45l66.17 -46.74c166.21,-117.38 185.04,-263.83 39.05,-470.52l-208.73 -295.53 -1077.24 760.85zm756.41 -235.34l307.79 -217.38 64.03 90.66c49.94,70.71 37.86,125.44 -39.09,179.79l-83.1 58.69c-86.18,60.87 -145.89,35.1 -198.39,-39.23l-51.24 -72.53zm-208.27 1029.94l105.61 200.26 249.04 -81.13 129.41 245.41 3.34 -1.75 -210.93 161.44 113.88 215.96 1048.54 -839.03 -154.29 -292.55 -1284.6 391.39zm526.42 61.16l626.32 -209.85 2.06 3.92 -525.89 400.3 -102.49 -194.37zm-24.76 905.57l86.61 228.28 392.84 -149.03 191.41 31.84 -476.38 401.52 90.54 238.67 675.66 -572.07 555.86 100.11 -86.61 -228.29 -629.88 -93.4 519.65 -197.15 -86.59 -228.28 -1233.11 467.8zm419.37 1206.31l53.81 238.16 547.65 -123.73 803.83 121.05 -52.33 -231.67 -509 -55.67 -0.98 -4.33 435.62 -269.1 -57.23 -253.31 -673.73 454.87 -547.64 123.73zm134.59 603.64l31.53 224.19 261.78 8.03 38.63 274.75 3.74 -0.52 -253.16 80.43 34 241.78 1270.77 -434.21 -46.06 -327.51 -1341.23 -66.94zm474.57 235.87l660.37 14.74 0.62 4.39 -630.4 198.48 -30.59 -217.61zm-348.34 933.99l2.88 244.14 1130.36 -13.37 3.03 255.25 188.39 -2.23 -8.93 -754.63 -188.39 2.23 3.01 255.24 -1130.35 13.37z"/>
  </g>
 </g>
</svg>
